<?xml version="1.0" standalone="no"?>
<!DOCTYPE svg PUBLIC "-//W3C//DTD SVG 20010904//EN"
 "http://www.w3.org/TR/2001/REC-SVG-20010904/DTD/svg10.dtd">
<svg version="1.0" xmlns="http://www.w3.org/2000/svg"
 width="1280.000000pt" height="958.000000pt" viewBox="0 0 1280.000000 958.000000"
 preserveAspectRatio="xMidYMid meet">
<metadata>
Created by potrace 1.15, written by Peter Selinger 2001-2017
</metadata>
<g transform="translate(0.000000,958.000000) scale(0.100000,-0.100000)"
fill="#000000" stroke="none">
<path d="M48 9564 c-46 -25 -52 -70 -39 -314 28 -506 86 -778 226 -1065 83
-170 167 -282 402 -543 203 -225 273 -368 328 -671 38 -208 63 -473 70 -721
10 -375 50 -873 101 -1260 67 -516 132 -720 428 -1348 217 -460 442 -788 756
-1102 401 -401 839 -718 1250 -906 334 -152 930 -338 1316 -409 341 -63 595
-81 1269 -91 259 -3 501 -9 538 -13 l68 -6 -101 -119 c-56 -65 -125 -153 -155
-195 -107 -153 -181 -219 -487 -439 -162 -116 -188 -142 -188 -190 0 -56 55
-100 180 -144 209 -73 537 7 1055 257 99 47 367 172 595 277 228 105 441 203
473 219 31 16 57 28 57 25 0 -2 -11 -34 -25 -70 -46 -122 -25 -199 57 -213 57
-9 177 23 280 75 117 59 380 234 518 345 125 100 259 238 330 340 63 90 96
112 315 212 172 78 304 155 890 517 749 463 783 477 1179 498 353 18 590 52
821 116 211 59 252 120 240 358 -6 114 -10 139 -35 193 -52 114 -68 123 -395
240 -519 185 -569 209 -627 303 -15 25 -37 79 -49 120 -57 207 -204 370 -459
508 -241 131 -496 192 -804 192 -190 0 -364 -16 -901 -85 -126 -16 -571 -35
-830 -35 -385 0 -530 14 -1043 99 -133 22 -180 34 -207 52 -24 17 -94 113
-224 309 -236 358 -382 541 -741 930 -219 237 -238 252 -352 291 -84 28 -203
31 -242 6 -48 -32 -56 -69 -56 -254 0 -249 -32 -412 -124 -628 -99 -236 -223
-397 -351 -457 -67 -31 -72 -31 -279 -40 -231 -11 -723 -3 -881 13 -172 17
-362 62 -555 131 -230 81 -573 282 -780 456 -289 242 -550 589 -745 987 -78
160 -262 591 -267 624 -3 24 4 27 147 71 165 51 210 71 302 136 141 100 313
349 383 554 31 91 40 291 15 355 -35 93 -104 108 -261 55 -123 -42 -188 -48
-245 -22 -82 37 -184 136 -307 298 -89 117 -153 143 -273 110 l-60 -17 -67 57
c-90 77 -143 99 -316 133 -236 47 -349 106 -519 270 -120 116 -216 240 -345
447 -75 119 -108 162 -133 176 -40 22 -84 23 -121 2z m172 -243 c168 -307 394
-546 615 -652 73 -35 156 -60 350 -104 154 -34 231 -107 266 -251 16 -64 35
-101 58 -114 25 -13 64 18 116 94 41 60 63 73 94 57 11 -6 61 -59 113 -118
258 -300 290 -315 536 -259 172 39 194 41 216 17 17 -18 18 -32 13 -118 -10
-154 -43 -235 -170 -413 -115 -161 -176 -224 -260 -265 -65 -32 -259 -85 -313
-85 -66 0 -124 -55 -124 -116 0 -54 41 -177 125 -379 184 -442 187 -448 529
-895 164 -214 265 -330 371 -422 313 -274 684 -435 1365 -592 193 -44 233 -50
609 -81 443 -36 638 -32 732 15 52 27 141 120 200 209 99 151 148 313 180 596
11 99 33 255 48 346 31 184 46 219 105 239 51 16 88 -4 182 -101 204 -211 325
-366 719 -924 148 -209 285 -403 306 -431 41 -55 128 -138 168 -159 33 -16
588 -109 781 -131 201 -22 579 -30 710 -15 58 7 215 34 350 61 728 146 889
155 1521 90 176 -18 348 -88 501 -203 141 -106 212 -197 339 -433 50 -94 46
-114 -21 -114 -58 0 -100 -11 -100 -26 0 -8 5 -14 11 -14 6 0 106 -38 223 -85
161 -64 278 -102 491 -160 154 -42 299 -85 322 -96 54 -26 105 -85 133 -154
l22 -54 -21 -30 c-24 -33 -61 -46 -241 -87 -138 -31 -293 -44 -405 -33 -49 4
-163 26 -253 48 -281 70 -455 89 -890 98 -211 4 -305 10 -312 18 -5 6 -11 22
-13 36 -5 34 -30 35 -92 4 -59 -28 -115 -85 -115 -115 0 -36 31 -40 282 -40
276 0 324 -4 834 -65 638 -77 806 -80 1040 -19 136 35 207 41 238 20 22 -14
24 -19 15 -46 -11 -31 -89 -99 -149 -130 -19 -10 -66 -27 -104 -39 -72 -22
-119 -26 -648 -51 -266 -13 -348 -26 -525 -88 -283 -100 -420 -171 -774 -402
-306 -200 -428 -273 -612 -369 -297 -155 -625 -280 -1102 -420 -81 -24 -130
-53 -239 -144 -234 -196 -487 -344 -916 -537 -463 -209 -734 -321 -1035 -430
-298 -107 -290 -105 -400 -104 -131 1 -187 28 -187 90 -1 35 38 73 135 132
105 65 228 164 301 243 32 34 111 133 177 220 65 87 153 203 195 256 97 125
104 141 69 169 -26 21 -40 22 -399 28 -204 4 -443 11 -531 17 -206 12 -849 74
-984 94 -575 86 -1128 272 -1577 531 -171 98 -660 425 -844 565 -340 257 -640
649 -935 1222 -272 529 -372 876 -465 1607 -56 446 -61 516 -66 855 -6 451
-23 608 -109 1013 -49 229 -68 262 -255 450 -152 153 -232 251 -320 397 -143
236 -246 544 -296 882 -18 118 -24 442 -11 508 l9 40 23 -29 c13 -16 47 -72
75 -125z m8984 -8010 c16 -18 15 -20 -27 -44 -24 -14 -81 -60 -128 -102 -200
-182 -472 -356 -696 -444 -80 -31 -103 -1 -64 84 24 51 65 89 226 207 160 117
231 163 304 195 67 30 329 121 352 122 9 1 24 -7 33 -18z"/>
<path d="M9829 3429 c-61 -27 -90 -75 -69 -114 8 -15 26 -33 41 -40 30 -16
208 -37 226 -27 21 13 93 83 93 92 0 19 -53 70 -93 89 -56 27 -137 27 -198 0z"/>
</g>
</svg>
